<svg width="16" height="16" viewBox="0 0 16 16" fill="inherit" xmlns="http://www.w3.org/2000/svg">
<path d="M8 5.56667C8 6.78169 7.18347 8 6 8C4.81653 8 4 6.78169 4 5.56667C4 4.35164 4.21429 3 6 3C7.78571 3 8 4.35164 8 5.56667Z" fill="inherit"/>
<path d="M1 14C1 10.3333 2.11111 9.5 6 9.5C9.88889 9.5 11 10.3333 11 14L1 14Z" fill="inherit"/>
<path d="M9.40967 7.8755C9.51361 7.90651 9.61656 7.94008 9.71835 7.9764C9.80965 7.99191 9.90363 8 10 8C11.1835 8 12 6.78169 12 5.56667C12 4.35164 11.7858 3 10 3C9.82282 3 9.66108 3.01331 9.5135 3.03848C9.96878 3.96655 10 4.97169 10 5.56667C10 6.36529 9.7963 7.17101 9.40967 7.8755Z" fill="inherit"/>
<path d="M15 14H13C13 12.4506 12.834 10.8467 11.9446 9.6063C14.2746 9.92442 15 11.0373 15 14Z" fill="inherit"/>
</svg>
