<svg width="23" height="24" viewBox="0 0 23 24" fill="inherit" xmlns="http://www.w3.org/2000/svg">
<path d="M0.8 4.8H2.4V21.184C2.40211 21.9302 2.69947 22.6452 3.22712 23.1729C3.75476 23.7005 4.4698 23.9979 5.216 24H17.216C17.9566 23.9895 18.6635 23.6885 19.1843 23.1617C19.705 22.635 19.998 21.9247 20 21.184V4.8H21.6C21.8122 4.8 22.0157 4.71571 22.1657 4.56569C22.3157 4.41566 22.4 4.21217 22.4 4C22.4 3.78783 22.3157 3.58434 22.1657 3.43431C22.0157 3.28429 21.8122 3.2 21.6 3.2H16V1.6C16.0001 1.18249 15.8371 0.781474 15.5456 0.48254C15.2541 0.183605 14.8574 0.0104376 14.44 0H8C7.57565 0 7.16869 0.168571 6.86863 0.468629C6.56857 0.768687 6.4 1.17565 6.4 1.6V3.2H0.8C0.587827 3.2 0.384344 3.28429 0.234315 3.43431C0.0842854 3.58434 0 3.78783 0 4C0 4.21217 0.0842854 4.41566 0.234315 4.56569C0.384344 4.71571 0.587827 4.8 0.8 4.8ZM8 1.6H14.4V3.2H8V1.6ZM6.4 4.8H18.4V21.184C18.4 21.5065 18.2719 21.8158 18.0438 22.0438C17.8158 22.2719 17.5065 22.4 17.184 22.4H5.184C4.86707 22.3917 4.56594 22.2599 4.34477 22.0327C4.1236 21.8056 3.99989 21.501 4 21.184V4.8H6.4Z" fill="inherit"/>
<path d="M8.54414 19.2C8.75631 19.2 8.9598 19.1157 9.10983 18.9657C9.25986 18.8157 9.34414 18.6122 9.34414 18.4V8.8C9.34414 8.58783 9.25986 8.38434 9.10983 8.23431C8.9598 8.08429 8.75631 8 8.54414 8C8.33197 8 8.12848 8.08429 7.97845 8.23431C7.82843 8.38434 7.74414 8.58783 7.74414 8.8V18.4C7.74414 18.6122 7.82843 18.8157 7.97845 18.9657C8.12848 19.1157 8.33197 19.2 8.54414 19.2Z" fill="inherit"/>
<path d="M13.8559 19.2C14.0681 19.2 14.2716 19.1157 14.4216 18.9657C14.5716 18.8157 14.6559 18.6122 14.6559 18.4V8.8C14.6559 8.58783 14.5716 8.38434 14.4216 8.23431C14.2716 8.08429 14.0681 8 13.8559 8C13.6437 8 13.4403 8.08429 13.2902 8.23431C13.1402 8.38434 13.0559 8.58783 13.0559 8.8V18.4C13.0559 18.6122 13.1402 18.8157 13.2902 18.9657C13.4403 19.1157 13.6437 19.2 13.8559 19.2Z" fill="inherit"/>
</svg>
