<svg width="24" height="24" viewBox="0 0 24 24" fill="inherit" xmlns="http://www.w3.org/2000/svg">
<path d="M22.4159 11.0461L19.1399 7.80006V4.00206C19.1399 3.67426 19.0097 3.35988 18.7779 3.12808C18.5461 2.89629 18.2317 2.76606 17.9039 2.76606C17.5761 2.76606 17.2617 2.89629 17.0299 3.12808C16.7981 3.35988 16.6679 3.67426 16.6679 4.00206V5.29806L14.2379 2.89806C13.6348 2.32047 12.832 1.99805 11.9969 1.99805C11.1618 1.99805 10.359 2.32047 9.75589 2.89806L1.60189 11.0221C1.47871 11.1357 1.37885 11.2722 1.30789 11.4241C1.24234 11.5781 1.20573 11.7428 1.19989 11.9101C1.19418 12.0767 1.2249 12.2425 1.28989 12.3961C1.3502 12.5513 1.44216 12.6923 1.55992 12.81C1.67768 12.9278 1.81866 13.0198 1.97389 13.0801C2.12507 13.1554 2.29103 13.1964 2.45989 13.2001C2.62715 13.1942 2.7919 13.1576 2.94589 13.0921C3.09772 13.0211 3.23426 12.9212 3.34789 12.7981L11.5019 4.61406C11.6366 4.48707 11.8148 4.41634 11.9999 4.41634C12.185 4.41634 12.3632 4.48707 12.4979 4.61406L20.6519 12.7681C20.7655 12.8912 20.9021 12.9911 21.0539 13.0621C21.2079 13.1276 21.3726 13.1642 21.5399 13.1701C21.7065 13.1758 21.8724 13.1451 22.0259 13.0801C22.1811 13.0198 22.3221 12.9278 22.4399 12.81C22.5576 12.6923 22.6496 12.5513 22.7099 12.3961C22.7749 12.2425 22.8056 12.0767 22.7999 11.9101C22.7941 11.7428 22.7574 11.5781 22.6919 11.4241C22.6209 11.2722 22.5211 11.1357 22.3979 11.0221L22.4159 11.0461Z" fill="inherit"/>
<path d="M12.4438 6.97785C12.3895 6.9185 12.3215 6.8732 12.2458 6.84585C12.1737 6.81511 12.0963 6.7988 12.0178 6.79785C11.9374 6.79801 11.8578 6.81433 11.7838 6.84585C11.7081 6.8732 11.6402 6.9185 11.5858 6.97785L4.41585 14.1479C4.35916 14.2034 4.31405 14.2697 4.28316 14.3428C4.25226 14.4159 4.23618 14.4945 4.23585 14.5739V19.7999C4.23506 20.0916 4.29194 20.3806 4.40322 20.6503C4.51451 20.92 4.678 21.1651 4.88431 21.3714C5.09061 21.5777 5.33565 21.7412 5.60535 21.8525C5.87505 21.9638 6.16409 22.0206 6.45585 22.0199H10.0078V16.5239H14.0158V22.0199H17.5738C17.8661 22.0214 18.1558 21.9651 18.4262 21.8542C18.6966 21.7433 18.9423 21.5799 19.1493 21.3735C19.3562 21.1671 19.5202 20.9218 19.6319 20.6517C19.7436 20.3816 19.8006 20.0921 19.7998 19.7999V14.5739C19.8003 14.4949 19.7852 14.4166 19.7553 14.3435C19.7254 14.2704 19.6815 14.2039 19.6258 14.1479L12.4438 6.97785Z" fill="inherit"/>
</svg>
