<svg width="16" height="17" viewBox="0 0 16 17" fill="inherit" xmlns="http://www.w3.org/2000/svg">
<circle class="no-transition" cx="8" cy="8.5" r="8" fill="inherit"/>
<path d="M9.86924 12.9622L9.99962 12.3579C9.93213 12.3939 9.82332 12.4349 9.67412 12.4817C9.5245 12.5284 9.38985 12.5522 9.2715 12.5522C9.01943 12.5522 8.84196 12.5054 8.73892 12.4112C8.63664 12.3171 8.58562 12.14 8.58562 11.8806C8.58562 11.7778 8.60101 11.6246 8.63321 11.4241C8.66441 11.2222 8.70029 11.0429 8.74018 10.886L9.22693 8.93242C9.2746 8.75314 9.3073 8.55603 9.32486 8.34091C9.34284 8.12626 9.35121 7.97609 9.35121 7.89086C9.35121 7.47891 9.22383 7.14462 8.969 6.88674C8.71417 6.62905 8.35128 6.5002 7.88101 6.5002C7.61932 6.5002 7.34266 6.55292 7.04986 6.65825C6.75705 6.7633 6.45095 6.88987 6.13072 7.03767L6 7.64236C6.09543 7.60235 6.20908 7.55931 6.34206 7.51475C6.47445 7.47038 6.60434 7.44744 6.73071 7.44744C6.98872 7.44744 7.16251 7.4973 7.25359 7.59553C7.34466 7.69403 7.39041 7.86924 7.39041 8.11972C7.39041 8.25824 7.37594 8.41211 7.34592 8.57935C7.31631 8.74764 7.27935 8.9256 7.23586 9.11341L6.74702 11.0748C6.70353 11.2809 6.67175 11.4653 6.65176 11.6291C6.63194 11.7926 6.6224 11.9531 6.6224 12.1092C6.6224 12.5123 6.75379 12.8446 7.01649 13.1068C7.27918 13.368 7.6475 13.4995 8.12104 13.4995C8.4294 13.4995 8.70003 13.4538 8.93295 13.362C9.16562 13.2704 9.47808 13.1372 9.86924 12.9622Z" fill="white"/>
<path d="M9.99962 4.50039C9.99962 5.05263 9.55195 5.5003 8.99972 5.5003C8.44748 5.5003 7.99981 5.05263 7.99981 4.50039C7.99981 3.94816 8.44748 3.50049 8.99972 3.50049C9.55195 3.50049 9.99962 3.94816 9.99962 4.50039Z" fill="white"/>
</svg>
