<svg width="16" height="16" viewBox="0 0 16 16" fill="inherit" xmlns="http://www.w3.org/2000/svg">
<circle cx="8" cy="8" r="8" fill="inherit"/>
<path fill-rule="evenodd" clip-rule="evenodd" d="M6.00005 5.1998C5.77914 4.97889 5.42096 4.97889 5.20005 5.19981V5.19981C4.97914 5.42072 4.97913 5.77889 5.20005 5.99981L7.20005 7.9998L5.20005 9.9998C4.97913 10.2207 4.97913 10.5789 5.20005 10.7998V10.7998C5.42096 11.0207 5.77913 11.0207 6.00005 10.7998L8.00005 8.7998L10 10.7998C10.221 11.0207 10.5791 11.0207 10.8 10.7998V10.7998C11.021 10.5789 11.021 10.2207 10.8 9.9998L8.80005 7.9998L10.8 5.9998C11.021 5.77889 11.021 5.42072 10.8 5.1998V5.1998C10.5791 4.97889 10.221 4.97889 10 5.1998L8.00005 7.1998L6.00005 5.1998Z" fill="white"/>
</svg>
