<svg width="24" height="24" viewBox="0 0 24 24" fill="none" xmlns="http://www.w3.org/2000/svg">
<path d="M11.862 14.0278C11.7029 14.0278 11.5503 13.9646 11.4378 13.8521C11.3253 13.7396 11.262 13.5869 11.262 13.4278V12.4498C11.2657 12.3561 11.2902 12.2644 11.3338 12.1813C11.3774 12.0983 11.439 12.026 11.514 11.9698L12.828 10.9618C12.9681 10.8534 13.0765 10.7093 13.142 10.5447C13.2074 10.38 13.2275 10.2008 13.2 10.0258C13.1544 9.75295 13.0222 9.502 12.823 9.31C12.6239 9.11799 12.3683 8.9951 12.0939 8.95946C11.8196 8.92382 11.541 8.97733 11.2994 9.11207C11.0578 9.24682 10.8659 9.45568 10.752 9.70781L10.554 10.0978C10.5222 10.1714 10.476 10.2379 10.418 10.2934C10.3601 10.3488 10.2916 10.3921 10.2167 10.4206C10.1417 10.4491 10.0618 10.4624 9.98165 10.4595C9.9015 10.4566 9.82275 10.4377 9.75004 10.4038C9.6774 10.3696 9.61235 10.3212 9.55876 10.2614C9.50517 10.2017 9.46412 10.1317 9.43804 10.0558C9.40454 9.98235 9.38721 9.90255 9.38721 9.82181C9.38721 9.74107 9.40454 9.66127 9.43804 9.58781L9.63004 9.20381C9.83437 8.77179 10.1571 8.4066 10.5606 8.15064C10.9642 7.89469 11.4321 7.75847 11.91 7.75781C12.4977 7.76145 13.0662 7.9675 13.5197 8.34126C13.9733 8.71502 14.2842 9.23365 14.4 9.80981C14.4689 10.2025 14.4286 10.6065 14.2837 10.9778C14.1387 11.3492 13.8947 11.6736 13.578 11.9158L12.486 12.7438V13.4158C12.4877 13.4977 12.4727 13.579 12.4418 13.6548C12.4109 13.7306 12.3648 13.7993 12.3063 13.8567C12.2478 13.914 12.1783 13.9588 12.1019 13.9882C12.0255 14.0176 11.9439 14.0311 11.862 14.0278V14.0278Z" fill="#767676"/>
<path d="M11.8622 16.614C11.7067 16.614 11.5548 16.5679 11.4255 16.4815C11.2962 16.3952 11.1955 16.2724 11.136 16.1288C11.0765 15.9852 11.0609 15.8271 11.0913 15.6747C11.1216 15.5222 11.1965 15.3821 11.3064 15.2722C11.4163 15.1623 11.5564 15.0874 11.7088 15.0571C11.8613 15.0268 12.0193 15.0423 12.163 15.1018C12.3066 15.1613 12.4293 15.2621 12.5157 15.3913C12.6021 15.5206 12.6482 15.6725 12.6482 15.828C12.6482 16.0365 12.5654 16.2364 12.418 16.3838C12.2706 16.5312 12.0706 16.614 11.8622 16.614V16.614Z" fill="#767676"/>
</svg>
