<svg width="25" height="25" viewBox="0 0 18 18" fill="inherit" xmlns="http://www.w3.org/2000/svg">
<path fill-rule="evenodd" clip-rule="evenodd" d="M9 10.0554L14.4762 15.5316C14.7674 15.8228 15.2404 15.8228 15.5316 15.5316C15.8228 15.2404 15.8228 14.7674 15.5316 14.4762L10.0554 9L15.5316 3.52385C15.8228 3.23265 15.8228 2.7596 15.5316 2.4684C15.2404 2.1772 14.7674 2.1772 14.4762 2.4684L9 7.94455L3.52385 2.4684C3.23265 2.1772 2.7596 2.1772 2.4684 2.4684C2.1772 2.7596 2.1772 3.23265 2.4684 3.52385L7.94455 9L2.4684 14.4762C2.1772 14.7674 2.1772 15.2404 2.4684 15.5316C2.7596 15.8228 3.23265 15.8228 3.52385 15.5316L9 10.0554Z" fill="inherit"/>
<mask id="mask0" style="mask-type:alpha" maskUnits="userSpaceOnUse" x="2" y="2" width="14" height="14">
<path fill-rule="evenodd" clip-rule="evenodd" d="M9 10.0554L14.4762 15.5316C14.7674 15.8228 15.2404 15.8228 15.5316 15.5316C15.8228 15.2404 15.8228 14.7674 15.5316 14.4762L10.0554 9L15.5316 3.52385C15.8228 3.23265 15.8228 2.7596 15.5316 2.4684C15.2404 2.1772 14.7674 2.1772 14.4762 2.4684L9 7.94455L3.52385 2.4684C3.23265 2.1772 2.7596 2.1772 2.4684 2.4684C2.1772 2.7596 2.1772 3.23265 2.4684 3.52385L7.94455 9L2.4684 14.4762C2.1772 14.7674 2.1772 15.2404 2.4684 15.5316C2.7596 15.8228 3.23265 15.8228 3.52385 15.5316L9 10.0554Z" fill="inherit"/>
</mask>
<g mask="url(#mask0)">
</g>
</svg>
