<svg width="89" height="49" viewBox="0 0 89 49" fill="none" xmlns="http://www.w3.org/2000/svg">
<mask id="mask0_2507_8142" style="mask-type:alpha" maskUnits="userSpaceOnUse" x="0" y="0" width="89" height="49">
<rect x="0.5" y="49" width="49" height="88" transform="rotate(-90 0.5 49)" fill="#C4C4C4"/>
</mask>
<g mask="url(#mask0_2507_8142)">
<path d="M5.05109 48.2117C2.63028 48.4235 0.473015 46.6299 0.503961 44.2C0.562762 39.583 1.3481 34.9946 2.83939 30.6054C4.80355 24.8245 7.94934 19.5156 12.0767 15.0164C16.204 10.5172 21.2225 6.92622 26.813 4.47189C32.4035 2.01755 38.4436 0.753569 44.5492 0.760335C50.6547 0.767108 56.692 2.04447 62.277 4.51119C67.8621 6.97792 72.8726 10.58 76.99 15.0883C81.1073 19.5966 84.2413 24.9125 86.1927 30.6978C87.6742 35.0903 88.4494 39.6804 88.498 44.2975C88.5235 46.7274 86.3623 48.5163 83.942 48.2991C81.5216 48.082 79.7645 45.9389 79.6782 43.5103C79.5575 40.114 78.9453 36.7452 77.8542 33.5103C76.2931 28.8821 73.7859 24.6294 70.4921 21.0227C67.1982 17.4161 63.1897 14.5344 58.7217 12.561C54.2537 10.5876 49.4238 9.56575 44.5394 9.56033C39.655 9.55492 34.8229 10.5661 30.3505 12.5296C25.8781 14.493 21.8633 17.3658 18.5614 20.9652C15.2596 24.5645 12.7429 28.8116 11.1716 33.4364C10.0733 36.6688 9.45367 40.0363 9.32545 43.4324C9.23377 45.8607 7.47189 47.9999 5.05109 48.2117Z" fill="url(#paint0_linear_2507_8142)"/>
</g>
<defs>
<linearGradient id="paint0_linear_2507_8142" x1="117.196" y1="44.7603" x2="-4.7607" y2="44.7603" gradientUnits="userSpaceOnUse">
<stop offset="0.25" stop-color="#D23231"/>
<stop offset="0.28125" stop-color="#D23231"/>
<stop offset="0.421875" stop-color="#FFB700"/>
<stop offset="0.583333" stop-color="#FFB700"/>
<stop offset="0.901042" stop-color="#1BA160"/>
</linearGradient>
</defs>
</svg>
