<svg width="15" height="14" viewBox="0 0 15 14" fill="inherit" xmlns="http://www.w3.org/2000/svg">
<path d="M14.7048 6.28739L12.4349 4.01791V1.40476C12.4349 1.17776 12.3447 0.960053 12.1841 0.799537C12.0236 0.639021 11.8058 0.548849 11.5788 0.548849C11.3517 0.548849 11.134 0.639021 10.9734 0.799537C10.8129 0.960053 10.7227 1.17776 10.7227 1.40476V2.30607L9.0397 0.623421C8.62095 0.223296 8.06403 0 7.4848 0C6.90556 0 6.34862 0.223296 5.92987 0.623421L0.277733 6.27443C0.192552 6.3525 0.124061 6.447 0.0763858 6.55224C0.0287102 6.65748 0.00283433 6.77128 0.000324084 6.88678C-0.00218617 7.00228 0.0187207 7.1171 0.0617791 7.22431C0.104838 7.33152 0.169165 7.4289 0.250875 7.5106C0.332584 7.59229 0.429977 7.6566 0.53721 7.69965C0.644442 7.7427 0.75928 7.7636 0.874806 7.76109C0.990333 7.75858 1.10417 7.73272 1.20943 7.68505C1.3147 7.63738 1.4092 7.5689 1.48728 7.48373L7.13944 1.82948C7.23367 1.74174 7.35763 1.69296 7.4864 1.69296C7.61516 1.69296 7.73915 1.74174 7.83338 1.82948L13.4855 7.48373C13.5636 7.5689 13.6581 7.63738 13.7634 7.68505C13.8686 7.73272 13.9825 7.75858 14.098 7.76109C14.2135 7.7636 14.3284 7.7427 14.4356 7.69965C14.5428 7.6566 14.6402 7.59229 14.7219 7.5106C14.8037 7.4289 14.868 7.33152 14.911 7.22431C14.9541 7.1171 14.975 7.00228 14.9725 6.88678C14.97 6.77128 14.9441 6.65748 14.8964 6.55224C14.8488 6.447 14.7803 6.3525 14.6951 6.27443L14.7048 6.28739Z" fill="inherit"/>
<path d="M7.79446 3.46696C7.7553 3.42775 7.7088 3.39664 7.65761 3.37542C7.60642 3.35419 7.55155 3.34326 7.49613 3.34326C7.44071 3.34326 7.38583 3.35419 7.33464 3.37542C7.28345 3.39664 7.23695 3.42775 7.1978 3.46696L2.22662 8.44038C2.14838 8.51872 2.10412 8.6247 2.10339 8.73541V12.3601C2.10339 12.7685 2.26567 13.1602 2.55454 13.4491C2.84341 13.7379 3.23519 13.9001 3.64371 13.9001H6.10498V10.0874H8.88404V13.8969H11.3485C11.7571 13.8969 12.1488 13.7346 12.4377 13.4458C12.7266 13.157 12.8889 12.7653 12.8889 12.3569V8.73217C12.8881 8.62146 12.8439 8.51548 12.7656 8.43713L7.79446 3.46696Z" fill="inherit"/>
</svg>
