<svg width="18" height="18" viewBox="0 0 18 18" fill="inherit" xmlns="http://www.w3.org/2000/svg">
<path fill-rule="evenodd" clip-rule="evenodd" d="M17.7713 16.6146L13.8281 12.6714C15.5147 10.5863 16.0081 7.77911 15.1337 5.24366C14.2602 2.70814 12.1416 0.801997 9.52822 0.199191C6.91505 -0.403535 4.17515 0.382052 2.27808 2.27807C0.382058 4.17512 -0.40355 6.91483 0.199202 9.52821C0.801929 12.1414 2.70818 14.2602 5.24368 15.1336C7.7792 16.0081 10.5865 15.5147 12.6714 13.8281L16.6146 17.7713C16.9354 18.0808 17.4451 18.0757 17.7608 17.7611C18.0754 17.4454 18.0805 16.9357 17.771 16.6149L17.7713 16.6146ZM1.66531 7.79428C1.66326 5.74911 2.68074 3.83878 4.37858 2.69881C6.07643 1.55975 8.23078 1.34115 10.1229 2.11854C12.0138 2.89495 13.394 4.56316 13.8014 6.56753C14.208 8.57084 13.59 10.6467 12.1516 12.0992C12.1414 12.1084 12.1291 12.1105 12.121 12.1197C12.1118 12.1288 12.1087 12.1421 12.1005 12.1503L12.0995 12.1513C10.9472 13.2914 9.39041 13.9289 7.76899 13.9237C6.14675 13.9176 4.59386 13.2689 3.44971 12.1207C2.30556 10.9714 1.66402 9.4155 1.66504 7.79433L1.66531 7.79428Z" fill="inherit"/>
</svg>
